<svg width="21" height="21" viewBox="0 0 21 21" fill="none" xmlns="http://www.w3.org/2000/svg">
<path d="M17.8547 3.05156C15.8906 1.08281 13.275 0 10.4953 0C4.75781 0 0.0890625 4.66875 0.0890625 10.4062C0.0890625 12.2391 0.567188 14.0297 1.47656 15.6094L0 21L5.51719 19.5516C7.03594 20.3813 8.74687 20.8172 10.4906 20.8172H10.4953C16.2281 20.8172 21 16.1484 21 10.4109C21 7.63125 19.8188 5.02031 17.8547 3.05156ZM10.4953 19.0641C8.93906 19.0641 7.41562 18.6469 6.08906 17.8594L5.775 17.6719L2.50313 18.5297L3.375 15.3375L3.16875 15.0094C2.30156 13.6313 1.84688 12.0422 1.84688 10.4062C1.84688 5.63906 5.72812 1.75781 10.5 1.75781C12.8109 1.75781 14.9812 2.65781 16.6125 4.29375C18.2437 5.92969 19.2469 8.1 19.2422 10.4109C19.2422 15.1828 15.2625 19.0641 10.4953 19.0641ZM15.2391 12.5859C14.9813 12.4547 13.7016 11.8266 13.4625 11.7422C13.2234 11.6531 13.05 11.6109 12.8766 11.8734C12.7031 12.1359 12.2063 12.7172 12.0516 12.8953C11.9016 13.0688 11.7469 13.0922 11.4891 12.9609C9.96094 12.1969 8.95781 11.5969 7.95 9.86719C7.68281 9.40781 8.21719 9.44063 8.71406 8.44687C8.79844 8.27344 8.75625 8.12344 8.69062 7.99219C8.625 7.86094 8.10469 6.58125 7.88906 6.06094C7.67813 5.55469 7.4625 5.625 7.30313 5.61563C7.15313 5.60625 6.97969 5.60625 6.80625 5.60625C6.63281 5.60625 6.35156 5.67188 6.1125 5.92969C5.87344 6.19219 5.20312 6.82031 5.20312 8.1C5.20312 9.37969 6.13594 10.6172 6.2625 10.7906C6.39375 10.9641 8.09531 13.5891 10.7062 14.7188C12.3562 15.4312 13.0031 15.4922 13.8281 15.3703C14.3297 15.2953 15.3656 14.7422 15.5812 14.1328C15.7969 13.5234 15.7969 13.0031 15.7313 12.8953C15.6703 12.7781 15.4969 12.7125 15.2391 12.5859Z" fill="black"/>
</svg>
